<svg xmlns="http://www.w3.org/2000/svg" viewBox="0 0 40 18.03"><title>shadowLogo</title><g id="Layer_2" data-name="Layer 2"><g id="Layer_1-2" data-name="Layer 1"><path d="M20,6.51l.23-.22c1.1-1,2.17-2.1,3.3-3.1A13.36,13.36,0,0,1,27.81.59,9.9,9.9,0,0,1,32.29.06,8.31,8.31,0,0,1,36.92,2a8.39,8.39,0,0,1,2.76,4.5A9.57,9.57,0,0,1,40,9.69a8.85,8.85,0,0,1-4.45,7.07A9,9,0,0,1,31.71,18,9.34,9.34,0,0,1,26,16.68a19,19,0,0,1-3.32-2.52c-.87-.8-1.71-1.63-2.56-2.44l-.2-.17a2.73,2.73,0,0,1-.2.25,43.2,43.2,0,0,1-3.64,3.39,13.3,13.3,0,0,1-4.41,2.42A10.42,10.42,0,0,1,8,18a8.68,8.68,0,0,1-4.43-1.56,8.29,8.29,0,0,1-3.1-4.32A9.42,9.42,0,0,1,0,8.79,8.83,8.83,0,0,1,3,2.31,9,9,0,0,1,7.88.09a9.19,9.19,0,0,1,5.7,1,18.21,18.21,0,0,1,3.76,2.76c.83.77,1.61,1.57,2.41,2.36A3.28,3.28,0,0,1,20,6.51ZM22.44,9l.11.13,2.24,2.14a14.49,14.49,0,0,0,2.65,2.1,6.32,6.32,0,0,0,4,1,5.08,5.08,0,0,0,3.41-1.81A5.3,5.3,0,0,0,36,7.74a5,5,0,0,0-5.6-4,7.23,7.23,0,0,0-2.91,1,16.49,16.49,0,0,0-3.3,2.58C23.6,7.83,23,8.39,22.44,9Zm-5,.1-.77-.81a25.32,25.32,0,0,0-3.38-3.08A7.29,7.29,0,0,0,9.86,3.74,5.11,5.11,0,0,0,5.52,5.18,5.24,5.24,0,0,0,4,10.29a4.79,4.79,0,0,0,2.17,3.23,5.35,5.35,0,0,0,4.41.6,9.07,9.07,0,0,0,3.15-1.58,31.15,31.15,0,0,0,3.68-3.4Z"/></g></g></svg>