<svg xmlns="http://www.w3.org/2000/svg" viewBox="0 0 1109.34 500.14"><title>svgLogoPath</title><g id="Layer_2" data-name="Layer 2"><g id="Layer_1-2" data-name="Layer 1"><path d="M553.73,180.49l6.53-6.1c30.4-28.72,60-58.31,91.4-85.93C687,57.35,726.49,32.38,771.17,16.32c40.37-14.52,82-19,124.42-14.75,47.85,4.78,91.17,21.56,128.33,52.62,39.43,33,64,75.22,76.63,124.72,7.52,29.47,10.58,59.57,7.75,89.71-8.07,85.95-49.59,151.55-123.41,196.3-32.39,19.63-68,30.13-105.57,33.94-56.7,5.75-108.94-8.09-157.85-36.36-33.65-19.46-63.94-43.41-92.31-69.8-23.92-22.25-47.31-45.06-70.95-67.61-1.41-1.34-3-2.55-5.47-4.72a82.1,82.1,0,0,1-5.54,6.9c-32.48,32.58-64.9,65.24-101,93.89-36.95,29.31-76.69,53.55-122.29,67.1a279.67,279.67,0,0,1-102.15,10.86c-44.81-3.45-86-17.05-122.69-43.28C56.92,425.71,29,385.24,13.12,336.22A266.36,266.36,0,0,1,.19,243.71C2.92,172.05,31,111.87,84.41,64c38.27-34.33,83.48-54.31,134.22-61.4C274.33-5.23,326.92,4.9,376.5,31.39,415,52,449.21,78.45,481,108c22.82,21.2,44.62,43.51,66.82,65.39C549.86,175.37,551.47,177.74,553.73,180.49Zm68.49,68.19c2,2.19,2.6,3,3.3,3.63q31,29.76,62.09,59.48c22.71,21.64,46.22,42.28,73.46,58.23,34,19.92,70.18,31,110.06,26.48,38.15-4.29,70-21.08,94.68-50.2,32.58-38.35,42.61-82.76,32.3-131.75C982.81,141.9,920.73,95.83,843,103.27c-29,2.77-55.61,12.78-80.81,27-34.1,19.22-63.4,44.61-91.5,71.5C654.52,217.19,638.59,232.81,622.22,248.68Zm-138,2.85c-7.15-7.5-14.22-15-21.38-22.41-29.41-30.48-59.14-60.64-93.76-85.37-28.81-20.57-59.84-36.08-95.62-40-46.23-5.1-87.1,7.31-120.46,39.91C112.9,182.82,99.92,231,111.11,285.5c7.77,37.83,27.3,68.54,60.17,89.58,38.09,24.39,79.47,27.51,122.46,16.65,32.33-8.17,60.67-24.47,87.26-44.07,37.47-27.63,69.64-61,102-94.2A12.25,12.25,0,0,0,484.23,251.53Z"/></g></g></svg>