<?xml version="1.0" encoding="utf-8"?>
<!-- Generator: Adobe Illustrator 24.0.2, SVG Export Plug-In . SVG Version: 6.00 Build 0)  -->
<svg version="1.1" id="Layer_1" transform="rotate(-45)"
	 xmlns="http://www.w3.org/2000/svg" xmlns:xlink="http://www.w3.org/1999/xlink" x="0px" y="0px" viewBox="0 0 120 120"
	 style="enable-background:new 0 0 120 120;" xml:space="preserve">
<path d="M42.5,68l30.3-13.6l-1.6-3.6L40.9,64.5L42.5,68z M50.5,117.1c-1.9,0.9-3.9,0.9-5.9,0.1c-2.1-0.8-3.5-2.1-4.4-4L4,32.7
	c-0.9-1.9-0.9-3.9-0.1-5.9c0.8-2.1,2.1-3.5,4-4.4L50.7,3.2l37.6,14.3L116,79.1c0.9,1.9,0.9,3.9,0.1,5.9c-0.8,2.1-2.1,3.5-4,4.4
	L50.5,117.1z M60.2,33.9l-9.9-22L11.1,29.5l0,0l0,0L47.3,110l0,0l0,0l61.6-27.7l0,0l0,0L82.6,23.8L60.2,33.9z M11.1,29.5l9.9,22
	L11.1,29.5l9.9,22L47.3,110l0,0l0,0l0,0l0,0L11.1,29.5L11.1,29.5L11.1,29.5z M45,73.6l38.1-17.2l-1.6-3.6L43.4,70.1L45,73.6z
	 M47.4,79.3l27.7-12.4l-1.6-3.6L45.8,75.7L47.4,79.3z M50.1,84.8l38.1-17.2l-1.6-3.6L48.5,81.3L50.1,84.8z M52.7,90.4l33.6-15.1
	l-1.6-3.6L51.1,86.9L52.7,90.4z M55.7,96l22.5-10.1l-1.6-3.6L54.1,92.4L55.7,96z"/>
</svg>
