<?xml version="1.0" standalone="no"?>
<!DOCTYPE svg PUBLIC "-//W3C//DTD SVG 20010904//EN"
 "http://www.w3.org/TR/2001/REC-SVG-20010904/DTD/svg10.dtd">
<svg version="1.0" xmlns="http://www.w3.org/2000/svg"
 width="1112.000000pt" height="1112.000000pt" viewBox="0 0 1112.000000 1112.000000"
 preserveAspectRatio="xMidYMid meet">
<metadata>
Created by potrace 1.14, written by Peter Selinger 2001-2017
</metadata>
<g transform="translate(0.000000,1112.000000) scale(0.100000,-0.100000)"
fill="#000000" stroke="none">
<path d="M2340 8047 c-3 -2 -36 -7 -75 -11 -75 -7 -186 -24 -250 -40 -128 -30
-196 -50 -285 -80 -58 -20 -109 -38 -115 -40 -87 -27 -481 -235 -505 -266 -3
-3 -27 -21 -54 -39 -176 -120 -424 -368 -558 -556 -67 -95 -104 -150 -111
-165 -4 -8 -16 -28 -26 -45 -142 -220 -279 -617 -321 -925 -20 -149 -27 -387
-16 -515 3 -27 7 -81 11 -119 3 -38 7 -79 10 -90 2 -12 6 -39 9 -61 23 -195
116 -502 216 -712 257 -541 669 -929 1235 -1163 148 -61 378 -120 585 -149
194 -28 529 -31 690 -6 14 2 50 7 80 11 30 4 57 8 60 9 3 1 25 5 50 9 180 31
433 107 587 177 23 10 45 19 48 19 17 0 294 144 390 203 53 32 280 184 330
220 53 38 200 151 205 156 3 4 43 38 90 77 93 78 100 84 210 182 114 103 221
205 487 468 l244 241 76 -71 c41 -39 121 -115 177 -170 55 -54 164 -160 241
-235 168 -162 345 -325 449 -412 16 -13 34 -29 40 -34 6 -6 34 -28 61 -50 28
-22 52 -43 55 -46 29 -34 478 -349 497 -349 3 0 14 -6 22 -14 29 -25 281 -154
395 -201 61 -26 120 -50 131 -55 107 -44 364 -110 490 -125 22 -3 51 -7 65
-10 114 -22 494 -22 607 0 11 2 44 6 73 10 29 4 62 9 74 11 364 69 685 194
951 370 50 32 94 61 99 63 5 2 16 9 25 17 9 7 35 28 57 46 111 88 134 109 220
193 259 254 454 549 581 880 39 100 45 118 49 130 96 337 118 479 118 765 0
134 -8 285 -19 370 -4 35 -27 183 -30 195 -1 6 -5 21 -8 35 -3 14 -13 57 -22
95 -24 101 -53 197 -92 300 -32 86 -112 264 -123 275 -3 3 -16 27 -29 53 -26
52 -127 207 -176 272 -90 118 -238 275 -335 353 -25 21 -54 45 -65 55 -56 52
-276 188 -400 248 -175 84 -302 132 -470 174 -122 31 -152 36 -257 51 -24 3
-68 9 -98 14 -57 9 -610 7 -645 -2 -11 -3 -47 -9 -80 -13 -32 -3 -62 -8 -65
-10 -3 -2 -26 -6 -50 -10 -114 -17 -351 -85 -490 -140 -36 -15 -69 -28 -75
-29 -81 -23 -406 -198 -585 -315 -128 -84 -432 -311 -470 -351 -3 -3 -36 -32
-75 -65 -38 -33 -75 -64 -81 -70 -6 -5 -49 -44 -95 -85 -112 -101 -261 -245
-501 -483 -109 -108 -203 -198 -208 -200 -4 -1 -152 140 -327 313 -175 173
-363 356 -418 405 -54 50 -110 100 -122 112 -13 12 -23 19 -23 16 0 -3 -8 3
-17 13 -10 11 -43 40 -73 64 -30 25 -60 49 -66 55 -7 5 -35 28 -64 50 -29 22
-61 48 -72 58 -10 9 -21 17 -24 17 -3 0 -27 17 -53 38 -174 143 -551 362 -776
452 -11 4 -36 15 -55 23 -34 14 -149 55 -180 63 -133 36 -241 64 -265 68 -16
2 -52 8 -80 12 -27 3 -59 9 -70 12 -25 7 -538 15 -545 9z m465 -1042 c17 -3
71 -14 120 -25 160 -33 373 -118 555 -221 57 -32 291 -187 300 -198 3 -4 33
-29 68 -55 204 -155 533 -466 910 -861 102 -106 103 -108 85 -129 -39 -46
-523 -525 -603 -597 -73 -66 -273 -236 -320 -272 -104 -80 -231 -170 -325
-227 -66 -41 -346 -189 -362 -191 -10 -2 -28 -8 -88 -32 -66 -26 -109 -39
-165 -51 -11 -3 -23 -7 -28 -9 -4 -3 -24 -8 -44 -11 -21 -3 -57 -10 -80 -15
-81 -18 -164 -25 -303 -25 -131 0 -258 9 -275 19 -5 3 -26 7 -49 10 -65 8
-249 72 -336 117 -257 132 -462 335 -593 588 -42 83 -97 215 -107 260 -2 8
-11 46 -20 85 -32 134 -39 208 -39 380 0 202 18 321 76 483 169 481 566 842
1047 953 51 12 81 18 156 29 57 9 374 5 420 -5z m6015 4 c770 -105 1274 -770
1207 -1594 -3 -44 -9 -91 -12 -105 -3 -14 -8 -38 -10 -55 -9 -51 -57 -209 -66
-219 -5 -6 -9 -16 -9 -23 0 -16 -72 -167 -82 -171 -5 -2 -8 -8 -8 -14 0 -15
-81 -136 -137 -204 -132 -163 -307 -304 -488 -392 -72 -35 -237 -98 -277 -106
-13 -2 -63 -12 -113 -22 -60 -11 -140 -17 -240 -18 -250 -1 -396 26 -625 112
-92 35 -295 134 -349 171 -14 10 -53 35 -86 56 -102 65 -296 212 -371 280 -6
6 -46 42 -89 80 -43 39 -102 93 -130 120 -29 28 -97 91 -152 141 -54 51 -153
145 -219 210 -67 66 -163 159 -214 208 l-92 89 44 45 c262 275 633 629 797
762 24 19 48 40 55 45 94 86 375 277 531 360 186 100 433 196 540 211 11 1 21
3 23 3 1 1 3 1 5 1 1 1 20 5 42 10 22 6 69 13 105 16 36 3 67 8 69 10 8 7 288
1 351 -7z"/>
</g>
</svg>
