<svg>
<defs>
<mask id="logo-background-clipping-path">
<path
        d="M607.39,198c3.21-3,5.2-4.83,7.17-6.69,33.34-31.5,65.84-64,100.26-94.26C753.58,62.91,796.9,35.52,845.91,17.9,890.19,2,935.84-2.92,982.39,1.73c52.49,5.23,100,23.64,140.77,57.71,43.25,36.15,70.2,82.51,84.06,136.81,8.25,32.33,11.6,65.35,8.5,98.4-8.86,94.29-54.4,166.25-135.38,215.33-35.53,21.53-74.59,33-115.8,37.23-62.19,6.3-119.5-8.87-173.14-39.89-36.92-21.34-70.14-47.61-101.26-76.56-26.24-24.4-51.89-49.43-77.82-74.16-1.55-1.48-3.24-2.8-6-5.18a92,92,0,0,1-6.08,7.57c-35.63,35.74-71.18,71.57-110.82,103-40.53,32.15-84.12,58.74-134.14,73.6a306.81,306.81,0,0,1-112,11.92c-49.16-3.79-94.34-18.71-134.58-47.48-46.2-33-76.87-77.45-94.25-131.22A292.31,292.31,0,0,1,.21,267.33C3.2,188.72,34,122.71,92.6,70.15c42-37.66,91.56-59.57,147.22-67.35C300.92-5.74,358.6,5.38,413,34.43,455.23,57,492.75,86.05,527.65,118.48c25,23.25,49,47.73,73.3,71.72C603.15,192.37,604.92,195,607.39,198Zm86.66,75.13c1.71,1.86,2.23,2.51,2.84,3.08q26.72,25.2,53.45,50.38c19.56,18.33,39.8,35.82,63.25,49.32,29.3,16.88,60.43,26.24,94.76,22.44,32.84-3.63,60.23-17.86,81.52-42.53,28-32.48,36.68-70.11,27.8-111.6-13.17-61.54-66.61-100.57-133.58-94.27-24.93,2.35-47.88,10.83-69.58,22.86-29.36,16.29-54.58,37.79-78.77,60.58C721.86,246.43,708.14,259.66,694.05,273.11ZM481.33,233.37c-24.19-22.79-49.41-44.29-78.77-60.58-21.7-12-44.66-20.51-69.58-22.86-67-6.3-120.41,32.73-133.59,94.27-8.88,41.49-.24,79.12,27.81,111.6,21.29,24.67,48.68,38.9,81.52,42.53,34.33,3.8,65.46-5.56,94.76-22.44,23.45-13.5,43.69-31,63.25-49.32q26.81-25.11,53.45-50.38c.6-.57,1.13-1.22,2.84-3.08C508.93,259.66,495.21,246.43,481.33,233.37Z"
      />

</mask>
</defs>

</svg>
