<svg version="1.0" xmlns="http://www.w3.org/2000/svg" width="920.000000pt" height="920.000000pt" viewBox="0 0 920.000000 920.000000" preserveAspectRatio="xMidYMid meet">

  <g transform="translate(0.000000,920.000000) scale(0.100000,-0.100000)" fill="#000000" stroke="none">
    <path d="M4242 8800 c-239 -20 -562 -80 -810 -150 -568 -160 -1094 -442 -1567
-839 -116 -97 -379 -360 -476 -476 -586 -699 -924 -1525 -990 -2419 -17 -220
-6 -661 20 -857 156 -1163 735 -2155 1666 -2852 391 -293 860 -527 1330 -662
640 -184 1372 -217 2005 -89 658 133 1228 394 1725 791 148 117 413 379 541
533 477 575 780 1278 894 2075 45 321 63 744 40 990 -10 109 -49 361 -70 463
l-12 52 -1969 0 -1969 0 2 -812 3 -813 1128 -3 c628 -1 1127 -6 1127 -11 0
-26 -53 -210 -85 -296 -183 -488 -514 -844 -1000 -1076 -347 -164 -717 -240
-1171 -239 -283 0 -519 36 -764 115 -1179 383 -1896 1567 -1689 2790 138 820
683 1521 1442 1857 189 83 386 143 592 177 515 87 1024 15 1490 -213 130 -64
356 -205 450 -281 l31 -24 614 615 615 615 -30 25 c-372 312 -734 536 -1148
708 -340 141 -692 236 -1071 287 -171 23 -708 34 -894 19z" />
  </g>
</svg>